<svg width="1920" height="1080" viewBox="0 0 1920 1080" xmlns="http://www.w3.org/2000/svg">
  <!-- Temporary Galactic Academy Background -->
  <defs>
    <radialGradient id="space-gradient" cx="50%" cy="50%">
      <stop offset="0%" stop-color="#1e1b4b"/>
      <stop offset="50%" stop-color="#0b0926"/>
      <stop offset="100%" stop-color="#050514"/>
    </radialGradient>
    
    <!-- Nebula effect -->
    <radialGradient id="nebula" cx="30%" cy="40%">
      <stop offset="0%" stop-color="#8B5CF6" stop-opacity="0.3"/>
      <stop offset="50%" stop-color="#6D28D9" stop-opacity="0.1"/>
      <stop offset="100%" stop-color="transparent"/>
    </radialGradient>
  </defs>
  
  <!-- Base gradient -->
  <rect width="1920" height="1080" fill="url(#space-gradient)"/>
  
  <!-- Nebula overlay -->
  <ellipse cx="600" cy="450" rx="800" ry="600" fill="url(#nebula)"/>
  
  <!-- Stars -->
  <circle cx="200" cy="150" r="2" fill="white" opacity="0.8"/>
  <circle cx="450" cy="200" r="1.5" fill="white" opacity="0.6"/>
  <circle cx="800" cy="100" r="2.5" fill="white" opacity="0.9"/>
  <circle cx="1200" cy="300" r="1" fill="white" opacity="0.5"/>
  <circle cx="1500" cy="150" r="2" fill="white" opacity="0.7"/>
  <circle cx="1700" cy="400" r="1.5" fill="white" opacity="0.6"/>
  
  <circle cx="300" cy="600" r="1" fill="white" opacity="0.5"/>
  <circle cx="600" cy="700" r="2" fill="white" opacity="0.8"/>
  <circle cx="1000" cy="650" r="1.5" fill="white" opacity="0.6"/>
  <circle cx="1400" cy="800" r="2.5" fill="white" opacity="0.9"/>
  <circle cx="1800" cy="900" r="1" fill="white" opacity="0.5"/>
  
  <!-- Distant stars (smaller) -->
  <circle cx="100" cy="300" r="0.5" fill="white" opacity="0.4"/>
  <circle cx="350" cy="500" r="0.5" fill="white" opacity="0.3"/>
  <circle cx="900" cy="400" r="0.5" fill="white" opacity="0.4"/>
  <circle cx="1300" cy="600" r="0.5" fill="white" opacity="0.3"/>
  <circle cx="1600" cy="200" r="0.5" fill="white" opacity="0.4"/>
</svg>
